<svg width="329" height="329" viewBox="0 0 329 329" fill="none" xmlns="http://www.w3.org/2000/svg">
<path d="M98.2008 49.1004C98.2008 76.2178 76.2178 98.2008 49.1004 98.2008C21.983 98.2008 0 76.2178 0 49.1004C0 21.983 21.983 0 49.1004 0C76.2178 0 98.2008 21.983 98.2008 49.1004Z" fill="url(#paint0_radial_2150_76)"/>
<path d="M85.9253 49.1006C85.9253 28.7626 69.4386 12.275 49.1006 12.2749C28.7625 12.2749 12.2749 28.7625 12.2749 49.1006C12.275 69.4386 28.7626 85.9253 49.1006 85.9253V98.2012L48.4656 98.1965C21.8519 97.8593 0.340634 76.3485 0.00374606 49.7346L0 49.1006C0 21.9832 21.9832 0 49.1006 0L49.7346 0.00374606C76.5597 0.343308 98.2012 22.1949 98.2012 49.1006L98.1965 49.7346C97.8569 76.5597 76.0062 98.2011 49.1006 98.2012V85.9253C69.4385 85.9252 85.9252 69.4385 85.9253 49.1006Z" fill="url(#paint1_linear_2150_76)"/>
<path d="M213.402 49.1004C213.402 76.2178 191.419 98.2008 164.301 98.2008C137.184 98.2008 115.201 76.2178 115.201 49.1004C115.201 21.983 137.184 0 164.301 0C191.419 0 213.402 21.983 213.402 49.1004Z" fill="url(#paint2_radial_2150_76)"/>
<path d="M201.126 49.1006C201.126 28.7626 184.639 12.275 164.302 12.2749C143.963 12.2749 127.476 28.7625 127.476 49.1006C127.476 69.4386 143.964 85.9253 164.302 85.9253V98.2012L163.667 98.1965C137.053 97.8593 115.542 76.3485 115.205 49.7346L115.201 49.1006C115.201 21.9832 137.184 0 164.302 0L164.936 0.00374606C191.761 0.343308 213.402 22.1949 213.402 49.1006L213.397 49.7346C213.058 76.5597 191.207 98.2011 164.302 98.2012V85.9253C184.639 85.9252 201.126 69.4385 201.126 49.1006Z" fill="url(#paint3_linear_2150_76)"/>
<path d="M213.402 164.301C213.402 191.419 191.419 213.402 164.301 213.402C137.184 213.402 115.201 191.419 115.201 164.301C115.201 137.184 137.184 115.201 164.301 115.201C191.419 115.201 213.402 137.184 213.402 164.301Z" fill="url(#paint4_radial_2150_76)"/>
<path d="M201.126 164.301C201.126 143.963 184.639 127.476 164.302 127.476C143.963 127.476 127.476 143.963 127.476 164.301C127.476 184.639 143.964 201.126 164.302 201.126V213.402L163.667 213.397C137.053 213.06 115.542 191.549 115.205 164.935L115.201 164.301C115.201 137.184 137.184 115.201 164.302 115.201L164.936 115.205C191.761 115.544 213.402 137.396 213.402 164.301L213.397 164.935C213.058 191.76 191.207 213.402 164.302 213.402V201.126C184.639 201.126 201.126 184.639 201.126 164.301Z" fill="url(#paint5_linear_2150_76)"/>
<path d="M213.402 279.502C213.402 306.619 191.419 328.602 164.301 328.602C137.184 328.602 115.201 306.619 115.201 279.502C115.201 252.385 137.184 230.402 164.301 230.402C191.419 230.402 213.402 252.385 213.402 279.502Z" fill="url(#paint6_radial_2150_76)"/>
<path d="M201.126 279.502C201.126 259.164 184.639 242.677 164.302 242.677C143.963 242.677 127.476 259.164 127.476 279.502C127.476 299.84 143.964 316.327 164.302 316.327V328.603L163.667 328.598C137.053 328.261 115.542 306.75 115.205 280.136L115.201 279.502C115.201 252.385 137.184 230.402 164.302 230.402L164.936 230.405C191.761 230.745 213.402 252.597 213.402 279.502L213.397 280.136C213.058 306.961 191.207 328.603 164.302 328.603V316.327C184.639 316.327 201.126 299.84 201.126 279.502Z" fill="url(#paint7_linear_2150_76)"/>
<path d="M328.603 49.1004C328.603 76.2178 306.62 98.2008 279.502 98.2008C252.385 98.2008 230.402 76.2178 230.402 49.1004C230.402 21.983 252.385 0 279.502 0C306.62 0 328.603 21.983 328.603 49.1004Z" fill="url(#paint8_radial_2150_76)"/>
<path d="M316.327 49.1006C316.327 28.7626 299.84 12.275 279.502 12.2749C259.164 12.2749 242.677 28.7625 242.677 49.1006C242.677 69.4386 259.164 85.9253 279.502 85.9253V98.2012L278.867 98.1965C252.254 97.8593 230.742 76.3485 230.406 49.7346L230.402 49.1006C230.402 21.9832 252.385 0 279.502 0L280.136 0.00374606C306.962 0.343308 328.603 22.1949 328.603 49.1006L328.598 49.7346C328.259 76.5597 306.408 98.2011 279.502 98.2012V85.9253C299.84 85.9252 316.327 69.4385 316.327 49.1006Z" fill="url(#paint9_linear_2150_76)"/>
<circle cx="49.1004" cy="164.301" r="49.1004" fill="url(#paint10_radial_2150_76)" fill-opacity="0.6"/>
<circle cx="49.1004" cy="164.301" r="42.7004" stroke="#4A4A4A" stroke-opacity="0.75" stroke-width="12.8"/>
<circle cx="49.1004" cy="279.502" r="49.1004" fill="url(#paint11_radial_2150_76)" fill-opacity="0.6"/>
<circle cx="49.1004" cy="279.502" r="42.7004" stroke="#4A4A4A" stroke-opacity="0.75" stroke-width="12.8"/>
<circle cx="279.502" cy="279.502" r="49.1004" fill="url(#paint12_radial_2150_76)" fill-opacity="0.6"/>
<circle cx="279.502" cy="279.502" r="42.7004" stroke="#4A4A4A" stroke-opacity="0.75" stroke-width="12.8"/>
<circle cx="279.502" cy="164.301" r="49.1004" fill="url(#paint13_radial_2150_76)" fill-opacity="0.6"/>
<circle cx="279.502" cy="164.301" r="42.7004" stroke="#4A4A4A" stroke-opacity="0.75" stroke-width="12.8"/>
<defs>
<radialGradient id="paint0_radial_2150_76" cx="0" cy="0" r="1" gradientUnits="userSpaceOnUse" gradientTransform="translate(48.9086 31.6467) rotate(90) scale(47.4701 74.5622)">
<stop stop-color="#D5EDE5" stop-opacity="0.8"/>
<stop offset="1" stop-color="#1F859C"/>
</radialGradient>
<linearGradient id="paint1_linear_2150_76" x1="49.1006" y1="0" x2="49.1006" y2="98.2012" gradientUnits="userSpaceOnUse">
<stop stop-color="#1F8399"/>
<stop offset="1" stop-color="#33DAFF"/>
</linearGradient>
<radialGradient id="paint2_radial_2150_76" cx="0" cy="0" r="1" gradientUnits="userSpaceOnUse" gradientTransform="translate(164.11 31.6467) rotate(90) scale(47.4701 74.5622)">
<stop stop-color="#D5EDE5" stop-opacity="0.8"/>
<stop offset="1" stop-color="#1F859C"/>
</radialGradient>
<linearGradient id="paint3_linear_2150_76" x1="164.302" y1="0" x2="164.302" y2="98.2012" gradientUnits="userSpaceOnUse">
<stop stop-color="#1F8399"/>
<stop offset="1" stop-color="#33DAFF"/>
</linearGradient>
<radialGradient id="paint4_radial_2150_76" cx="0" cy="0" r="1" gradientUnits="userSpaceOnUse" gradientTransform="translate(164.11 146.848) rotate(90) scale(47.4701 74.5622)">
<stop stop-color="#D5EDE5" stop-opacity="0.8"/>
<stop offset="1" stop-color="#1F859C"/>
</radialGradient>
<linearGradient id="paint5_linear_2150_76" x1="164.302" y1="115.201" x2="164.302" y2="213.402" gradientUnits="userSpaceOnUse">
<stop stop-color="#1F8399"/>
<stop offset="1" stop-color="#33DAFF"/>
</linearGradient>
<radialGradient id="paint6_radial_2150_76" cx="0" cy="0" r="1" gradientUnits="userSpaceOnUse" gradientTransform="translate(164.11 262.048) rotate(90) scale(47.4701 74.5622)">
<stop stop-color="#D5EDE5" stop-opacity="0.8"/>
<stop offset="1" stop-color="#1F859C"/>
</radialGradient>
<linearGradient id="paint7_linear_2150_76" x1="164.302" y1="230.402" x2="164.302" y2="328.603" gradientUnits="userSpaceOnUse">
<stop stop-color="#1F8399"/>
<stop offset="1" stop-color="#33DAFF"/>
</linearGradient>
<radialGradient id="paint8_radial_2150_76" cx="0" cy="0" r="1" gradientUnits="userSpaceOnUse" gradientTransform="translate(279.31 31.6467) rotate(90) scale(47.4701 74.5622)">
<stop stop-color="#D5EDE5" stop-opacity="0.8"/>
<stop offset="1" stop-color="#1F859C"/>
</radialGradient>
<linearGradient id="paint9_linear_2150_76" x1="279.502" y1="0" x2="279.502" y2="98.2012" gradientUnits="userSpaceOnUse">
<stop stop-color="#1F8399"/>
<stop offset="1" stop-color="#33DAFF"/>
</linearGradient>
<radialGradient id="paint10_radial_2150_76" cx="0" cy="0" r="1" gradientUnits="userSpaceOnUse" gradientTransform="translate(40.7572 149.725) rotate(45) scale(40.6866 63.9072)">
<stop stop-color="#454545" stop-opacity="0.6"/>
<stop offset="1" stop-color="#454545" stop-opacity="0.6"/>
</radialGradient>
<radialGradient id="paint11_radial_2150_76" cx="0" cy="0" r="1" gradientUnits="userSpaceOnUse" gradientTransform="translate(40.7572 264.925) rotate(45) scale(40.6866 63.9072)">
<stop stop-color="#454545" stop-opacity="0.6"/>
<stop offset="1" stop-color="#454545" stop-opacity="0.6"/>
</radialGradient>
<radialGradient id="paint12_radial_2150_76" cx="0" cy="0" r="1" gradientUnits="userSpaceOnUse" gradientTransform="translate(271.159 264.925) rotate(45) scale(40.6866 63.9072)">
<stop stop-color="#454545" stop-opacity="0.6"/>
<stop offset="1" stop-color="#454545" stop-opacity="0.6"/>
</radialGradient>
<radialGradient id="paint13_radial_2150_76" cx="0" cy="0" r="1" gradientUnits="userSpaceOnUse" gradientTransform="translate(271.159 149.725) rotate(45) scale(40.6866 63.9072)">
<stop stop-color="#454545" stop-opacity="0.6"/>
<stop offset="1" stop-color="#454545" stop-opacity="0.6"/>
</radialGradient>
</defs>
</svg>
